<svg xmlns="http://www.w3.org/2000/svg" viewBox="0 0 1105 737"><defs><style>.cls-1{fill:#f7931e;}.cls-2,.cls-9{fill:#ccc;}.cls-3{fill:#f4f283;}.cls-4{fill:gray;}.cls-5{fill:#4d4d4d;}.cls-6{fill:#1a1a1a;}.cls-7{fill:#333;}.cls-8{fill:#e6e6e6;}.cls-9{opacity:0.44;}.cls-10{fill:#666;}.cls-11{fill:#754c24;}.cls-12,.cls-15{fill:#999;}.cls-13{fill:#b3b3b3;}.cls-14{fill:#a67c52;}.cls-15{opacity:0.36;}.cls-16{fill:#fff;}</style></defs><g id="Capa_2" data-name="Capa 2"><g id="Capa_1-2" data-name="Capa 1"><ellipse class="cls-1" cx="644" cy="368.5" rx="461" ry="368.5"/><ellipse class="cls-2" cx="737" cy="660" rx="46" ry="30"/><path class="cls-3" d="M506.49,531.13c-18.23,17.83-46,32-53.49,24.87-1.48-1.41-1-2.86-.85-13.8.42-25-1.59-26.13.85-31.2,4-8.26,9.45-5.61,24.51-18.13C490.56,482,489.76,477.27,498,474c11.52-4.57,28.64-1.49,33.85,7.8C541,498,510.4,527.31,506.49,531.13Z"/><path class="cls-4" d="M560.67,455.47c-1.55,19.83-3.26,41.69-19,50.42-13.2,7.31-29.35,1.55-30.35,1.18-2.05-.76-13.41-5-19.26-15.46-8.48-15.21.1-33.87,8.56-51.61,4.33-9.08,29.16-61.13,46.62-56.66C565.55,388,561,451.1,560.67,455.47Z"/><ellipse class="cls-5" cx="649.33" cy="429.72" rx="113.49" ry="177.4" transform="translate(-103.95 232.58) rotate(-18.83)"/><g id="cabeza"><g id="cara"><circle class="cls-3" cx="605.5" cy="263.5" r="143.5"/><circle class="cls-6" cx="527.5" cy="291.5" r="15.5"/><circle class="cls-6" cx="628.5" cy="291.5" r="15.5"/></g><g id="Gorra"><ellipse class="cls-7" cx="724" cy="210" rx="98" ry="48"/><path class="cls-8" d="M770,247c-8.41,12.68-23.73,22.23-159.86,23-141.5.82-158.41-9.3-167.86-23-23.22-33.72-1.85-90,21.72-121,43.12-56.67,115.66-57.69,138-58,22-.31,82.36-1.15,128,44C765.38,147,793.65,211.34,770,247Z"/><rect class="cls-7" x="487" y="210" width="152" height="31" rx="12"/><ellipse class="cls-7" cx="592.5" cy="81.5" rx="12.5" ry="4.5"/></g></g><path class="cls-9" d="M774,186c3.15,13,11.61,47.89-6,64-7,6.39-18.09,9.85-25,12-3.4,1.06-14.64,4.56-16,2-1-1.8,3.55-5.54,8-10,11-11,19.59-24.31,23-34,4.46-12.68,1.78-24.3,0-32-12.72-55.14-84.4-104.61-81-109,1.53-2,14.34,5.64,20,9a174.67,174.67,0,0,1,54,50C758.57,149,768.63,163.87,774,186Z"/><path class="cls-4" d="M742,358c13.23,1.87,28.35,51.4,9,89-19.46,37.81-70.35,56.93-85.58,44.26-9.76-8.11-6-30.22-.42-43.26,7-16.44,17.38-19.59,35-37C731.09,380.27,732.62,356.67,742,358Z"/><path class="cls-3" d="M702,477c-.18,17-37.43,33.23-69.5,33-37.14-.27-71.6-22.7-69.5-33,1.77-8.67,27.83-.83,70-19,14-6,20.45-10.92,32-10C682.92,449.42,702.14,463.93,702,477Z"/><ellipse class="cls-3" cx="580" cy="495" rx="42" ry="37"/><path class="cls-10" d="M754.77,661c-19-4.4-46.51-8.27-78.28-3-40,6.64-51,22-79.31,19-31.46-3.29-70.67-26.87-72.17-58-1.65-34,46.28-62,82.34-68,26.84-4.47,36.27,5.25,64,4,26.63-1.19,59.51-11.85,96.6-46a188.27,188.27,0,0,1,23,62c4.3,24.16,8.4,47.2-5,67C776.71,651.73,762.94,658.09,754.77,661Z"/><path class="cls-5" d="M705.07,682.8C668.8,698.1,614.5,701.41,603,679c-11.72-22.73,21.81-69.85,63.49-87.25s98.77-8.08,106.68,16.24C780.89,631.84,740.74,667.74,705.07,682.8Z"/><path class="cls-10" d="M708,687c-39,13.57-99.9,20.31-110.47-1.66s29.46-71.85,78.4-88.54S787.06,595.19,792.09,619,745.5,674,708,687Z"/><path class="cls-5" d="M625,587c3.65,1.84,9.92,5,15,12a35.92,35.92,0,0,1,5.51,11.49c2-9.72-3-19.9-14.69-26.7-15.11-8.82-36.55-9.17-52.16-1.74C583.11,581.36,607,577.93,625,587Z"/><path class="cls-2" d="M634,669c4.89,28.4-38.55,57.15-53,50-4.62-2.29-6.14-10.89-9-28-5.14-30.77-7.71-46.16-1-52C583.93,627.73,629.39,642.25,634,669Z"/><rect class="cls-11" y="613" width="552" height="32" rx="12"/><rect class="cls-11" x="113.97" y="624.87" width="23" height="118.12" rx="11.5" transform="translate(358.77 28.89) rotate(30)"/><rect class="cls-5" x="62" y="589" width="459" height="29" rx="12"/><rect class="cls-7" x="49" y="325" width="414" height="273" rx="31.44"/><rect class="cls-11" x="380.75" y="613.71" width="23" height="128.14" rx="11.5" transform="translate(-323.46 359.98) rotate(-36)"/><path class="cls-12" d="M968.52,691H877.7c-15.47,0-28-10.28-28-23V551.32L923.11,546l73.44,5.29V668.05C996.55,680.72,984,691,968.52,691Z"/><ellipse class="cls-2" cx="923.11" cy="550.83" rx="73.43" ry="8.99"/><path class="cls-13" d="M996.55,576.3v12.61c19.8,3.38,34.46,15.49,34.46,29.91s-14.66,26.52-34.46,29.9v12c27.85-2.52,49.45-20.45,49.45-42.21S1024.4,578.82,996.55,576.3Z"/><path class="cls-14" d="M984.56,555.62c0,2.23-33.19,4.27-61.45,4.19-29.45-.08-63.71-2.51-63.69-4.79s34.37-4.41,64.07-4.19C951.58,551,984.57,553.39,984.56,555.62Z"/><path class="cls-15" d="M917.12,389.68c-7.69,13.82-19.2,18.5-21,34.15-1.89,16.57,9.1,28.28,7.87,28.75-2.11.81-40.22-31.05-31.85-62.6,4.74-17.87,21.32-23.91,29.22-53.61,3-11.42,2.37-17.2,4.5-17.37C911.59,318.54,934.42,358.59,917.12,389.68Z"/><path class="cls-15" d="M967.32,499.91c-8,6.57-21.52,8.77-28.47,21.56s-.34,23.2-4.5,24.56c-6.8,2.24-36.65-21.8-32.22-44.92,3.24-16.89,21.61-16.94,32.22-40.74,6.1-13.66,5.67-26.28,5.25-38.94-.8-23.71-7.8-34.81-6-35.34C938.76,384.57,998.71,474,967.32,499.91Z"/><path class="cls-15" d="M882,466.51c-2.74,2.21-5.24,1.95-7.57,4.64a10.19,10.19,0,0,0-2,8.68c2.11,8.46,16,13.46,15.32,15.14l0,0c-.8.62-22.49-3.28-30.36-17-3.55-6.21-7.23-19.56,3.87-25.69,6.78-3.74,18.37-4.39,22.92-1.16C888.94,454.52,886.6,462.8,882,466.51Z"/><polygon class="cls-16" points="223.5 469.52 223.5 469.35 207 479.33 207 493.14 273.36 453 262.09 446.18 223.5 469.52"/><polygon class="cls-16" points="250.67 439.28 207 412.87 207 426.77 239.18 446.23 250.67 439.28"/><polygon class="cls-1" points="261.5 488.35 261.5 488.52 278 478.54 278 464.73 211.64 504.86 222.91 511.68 261.5 488.35"/><polygon class="cls-1" points="234.33 518.59 278 545 278 531.1 245.82 511.63 234.33 518.59"/></g></g></svg>