<svg xmlns="http://www.w3.org/2000/svg" viewBox="0 0 282.08 428.07"><defs><style>.cls-1{fill:gray;}.cls-2{fill:#ff7bac;}.cls-3{fill:#f38200;}.cls-4{fill:#ffb522;}.cls-5{fill:#999;}.cls-6{fill:#fffd9f;}.cls-7{fill:#1a1a1a;}.cls-8{fill:#e6e6e6;}.cls-9{fill:#333;}.cls-10{fill:#ccc;opacity:0.44;}.cls-11{fill:#8957ff;}</style></defs><g id="Capa_2" data-name="Capa 2"><g id="Capa_1-2" data-name="Capa 1"><path class="cls-1" d="M280,326.48c7.16,22.19-6,54-20.49,57.27-8.66,2-16-6.71-26.07-18.65-9.87-11.68-20.61-24.38-18.63-37.28,2.68-17.53,26.63-21.13,27.94-21.31C246,306.07,272.25,302.5,280,326.48Z"/><circle class="cls-2" cx="253" cy="278.77" r="7.5" transform="translate(-89.56 122.63) rotate(-23.27)"/><rect class="cls-3" x="183.95" y="243.74" width="15" height="123" transform="translate(396.22 8.78) rotate(66.73)"/><rect class="cls-4" x="186.06" y="240.53" width="8" height="123" transform="translate(392.43 8.1) rotate(66.73)"/><rect class="cls-5" x="243.2" y="276.76" width="15" height="6" transform="translate(408.66 -61.07) rotate(66.73)"/><ellipse class="cls-6" cx="148" cy="162.57" rx="119" ry="110.5"/><circle class="cls-7" cx="103.5" cy="192.57" r="14.5"/><circle class="cls-7" cx="200.5" cy="192.57" r="14.5"/><path class="cls-8" d="M275,131.07c-5.43,8.05-17.24,18.68-121,17-120.43-1.95-131.42-16.72-135-23-15.27-26.77,6.65-70,30-93C80.67.93,121.89.39,146,.07c24.88-.33,73.1-1,106,35C274.94,60.15,292.43,105.23,275,131.07Z"/><rect class="cls-9" x="89" y="104.07" width="126" height="26" rx="12"/><ellipse class="cls-7" cx="149.5" cy="24.07" rx="12.5" ry="4"/><path class="cls-10" d="M68,69.07c-20.7,33.34-11,71.88-14,72-2.85.12-15.56-34.25-2-64.5,19.9-44.4,84.56-53.56,85-52.5C137.37,25,91.13,31.83,68,69.07Z"/><path class="cls-10" d="M231.27,69.12c21.16,34.47,9.68,74.74,12.73,74.95,2.9.2,17.38-35.88,3.27-67.45-19.86-44.44-84.56-53.53-85-52.5S208.41,31.88,231.27,69.12Z"/><path class="cls-11" d="M152.34,428.07H23.22c6.7-33.8,11.34-83.14-2.16-139.29A315.06,315.06,0,0,0,6,242.35l138.81-5.28a788.94,788.94,0,0,1,9.69,98.14A788.31,788.31,0,0,1,152.34,428.07Z"/><ellipse class="cls-6" cx="30" cy="347.07" rx="30" ry="36"/><ellipse class="cls-6" cx="197" cy="320.57" rx="33" ry="26.5"/><path class="cls-6" d="M275,331.07c7.69,16.66-6.48,40.53-22,43-9.3,1.48-17.17-5-28-14-10.6-8.77-22.12-18.31-20-28,2.88-13.16,28.6-15.87,30-16C238.5,315.74,266.69,313.06,275,331.07Z"/></g></g></svg>