<svg xmlns="http://www.w3.org/2000/svg" viewBox="0 0 1046 668.67"><defs><style>.cls-1,.cls-8{fill:#ccc;}.cls-2{fill:#f4f283;}.cls-3{fill:gray;}.cls-4{fill:#4d4d4d;}.cls-5{fill:#1a1a1a;}.cls-6{fill:#333;}.cls-7{fill:#e6e6e6;}.cls-8{opacity:0.44;}.cls-9{fill:#666;}.cls-10{fill:#754c24;}.cls-11,.cls-14{fill:#999;}.cls-12{fill:#b3b3b3;}.cls-13{fill:#a67c52;}.cls-14{opacity:0.36;}.cls-15{fill:#fff;}.cls-16{fill:#f7931e;}</style></defs><g id="Capa_2" data-name="Capa 2"><g id="Capa_1-2" data-name="Capa 1"><ellipse class="cls-1" cx="737" cy="592.06" rx="46" ry="30"/><path class="cls-2" d="M506.49,463.19c-18.23,17.83-46,32-53.49,24.87-1.48-1.41-1-2.85-.85-13.8.42-25-1.59-26.13.85-31.2,4-8.25,9.45-5.61,24.51-18.13,13.05-10.85,12.25-15.59,20.49-18.87,11.52-4.57,28.64-1.48,33.85,7.81C541,430.1,510.4,459.37,506.49,463.19Z"/><path class="cls-3" d="M560.67,387.53c-1.55,19.83-3.26,41.7-19,50.42-13.2,7.32-29.35,1.56-30.35,1.19-2.05-.77-13.41-5-19.26-15.47-8.48-15.21.1-33.87,8.56-51.61,4.33-9.07,29.16-61.13,46.62-56.66C565.55,320.09,561,383.16,560.67,387.53Z"/><ellipse class="cls-4" cx="649.33" cy="361.79" rx="113.49" ry="177.4" transform="translate(-82.02 228.94) rotate(-18.83)"/><g id="cabeza"><g id="cara"><circle class="cls-2" cx="605.5" cy="195.56" r="143.5"/><circle class="cls-5" cx="527.5" cy="223.56" r="15.5"/><circle class="cls-5" cx="628.5" cy="223.56" r="15.5"/></g><g id="Gorra"><ellipse class="cls-6" cx="724" cy="142.06" rx="98" ry="48"/><path class="cls-7" d="M770,179c-8.41,12.67-23.73,22.22-159.86,23-141.5.82-158.41-9.3-167.86-23-23.22-33.72-1.85-90,21.72-121C507.12,1.39,579.66.38,602,.06c22-.31,82.36-1.15,128,44C765.38,79.07,793.65,143.4,770,179Z"/><rect class="cls-6" x="487" y="142.06" width="152" height="31" rx="12"/><ellipse class="cls-6" cx="592.5" cy="13.56" rx="12.5" ry="4.5"/></g></g><path class="cls-8" d="M774,118.06c3.15,13,11.61,47.89-6,64-7,6.39-18.09,9.85-25,12-3.4,1.06-14.64,4.56-16,2-1-1.79,3.55-5.54,8-10,11-11,19.59-24.3,23-34,4.46-12.68,1.78-24.29,0-32-12.72-55.14-84.4-104.61-81-109,1.53-2,14.34,5.64,20,9a174.67,174.67,0,0,1,54,50C758.57,81,768.63,95.93,774,118.06Z"/><path class="cls-3" d="M742,290.06c13.23,1.87,28.35,51.4,9,89-19.46,37.81-70.35,56.93-85.58,44.27-9.76-8.12-6-30.22-.42-43.27,7-16.43,17.38-19.59,35-37C731.09,312.33,732.62,288.74,742,290.06Z"/><path class="cls-2" d="M702,409.06c-.18,17-37.43,33.23-69.5,33-37.14-.27-71.6-22.7-69.5-33,1.77-8.67,27.83-.83,70-19,14-6,20.45-10.91,32-10C682.92,381.48,702.14,396,702,409.06Z"/><ellipse class="cls-2" cx="580" cy="427.06" rx="42" ry="37"/><path class="cls-9" d="M754.77,593.06c-19-4.4-46.51-8.27-78.28-3-40,6.64-51,22-79.31,19-31.46-3.29-70.67-26.87-72.17-58-1.65-34,46.28-62,82.34-68,26.84-4.47,36.27,5.25,64,4,26.63-1.19,59.51-11.85,96.6-46a188.27,188.27,0,0,1,23,62c4.3,24.17,8.4,47.2-5,67C776.71,583.79,762.94,590.15,754.77,593.06Z"/><path class="cls-4" d="M705.07,614.86c-36.27,15.3-90.57,18.61-102.1-3.76-11.72-22.72,21.81-69.85,63.49-87.24s98.77-8.09,106.68,16.23C780.89,563.91,740.74,599.81,705.07,614.86Z"/><path class="cls-9" d="M708,619.06c-39,13.57-99.9,20.31-110.47-1.66s29.46-71.84,78.4-88.54,111.13-1.61,116.16,22.2C797.09,574.71,745.5,606,708,619.06Z"/><path class="cls-4" d="M625,519.06c3.65,1.84,9.92,5,15,12a35.92,35.92,0,0,1,5.51,11.49c2-9.72-3-19.9-14.69-26.7-15.11-8.82-36.55-9.16-52.16-1.73C583.11,513.43,607,510,625,519.06Z"/><path class="cls-1" d="M634,601.06c4.89,28.4-38.55,57.15-53,50-4.62-2.28-6.14-10.89-9-28-5.14-30.77-7.71-46.15-1-52C583.93,559.8,629.39,574.31,634,601.06Z"/><rect class="cls-10" y="545.06" width="552" height="32" rx="12"/><rect class="cls-10" x="113.97" y="556.93" width="23" height="118.12" rx="11.5" transform="translate(324.81 19.79) rotate(30)"/><rect class="cls-4" x="62" y="521.06" width="459" height="29" rx="12"/><rect class="cls-6" x="49" y="257.06" width="414" height="273" rx="31.44"/><rect class="cls-10" x="380.75" y="545.77" width="23" height="128.14" rx="11.5" transform="translate(-283.53 347.01) rotate(-36)"/><path class="cls-11" d="M968.52,623.06H877.7c-15.47,0-28-10.27-28-22.95V483.38l73.43-5.28,73.44,5.28V600.11C996.55,612.79,984,623.06,968.52,623.06Z"/><ellipse class="cls-1" cx="923.11" cy="482.89" rx="73.43" ry="8.99"/><path class="cls-12" d="M996.55,508.36V521c19.8,3.38,34.46,15.49,34.46,29.91s-14.66,26.53-34.46,29.91v12c27.85-2.53,49.45-20.46,49.45-42.22S1024.4,510.89,996.55,508.36Z"/><path class="cls-13" d="M984.56,487.68c0,2.23-33.19,4.27-61.45,4.19-29.45-.08-63.71-2.5-63.69-4.79s34.37-4.41,64.07-4.19C951.58,483.09,984.57,485.46,984.56,487.68Z"/><path class="cls-14" d="M917.12,321.75c-7.69,13.81-19.2,18.49-21,34.14-1.89,16.58,9.1,28.29,7.87,28.76-2.11.8-40.22-31.06-31.85-62.6,4.74-17.88,21.32-23.92,29.22-53.62,3-11.41,2.37-17.2,4.5-17.37C911.59,250.6,934.42,290.66,917.12,321.75Z"/><path class="cls-14" d="M967.32,432c-8,6.57-21.52,8.77-28.47,21.57s-.34,23.19-4.5,24.56c-6.8,2.23-36.65-21.81-32.22-44.93,3.24-16.88,21.61-16.94,32.22-40.74,6.1-13.66,5.67-26.28,5.25-38.93-.8-23.72-7.8-34.81-6-35.35C938.76,316.63,998.71,406.1,967.32,432Z"/><path class="cls-14" d="M882,398.57c-2.74,2.21-5.24,1.95-7.57,4.65a10.17,10.17,0,0,0-2,8.67c2.11,8.46,16,13.46,15.32,15.14,0,0,0,0,0,0-.8.62-22.49-3.27-30.36-17-3.55-6.21-7.23-19.56,3.87-25.68,6.78-3.74,18.37-4.4,22.92-1.17C888.94,386.58,886.6,394.87,882,398.57Z"/><polygon class="cls-15" points="223.5 401.58 223.5 401.41 207 411.39 207 425.2 273.36 385.06 262.09 378.25 223.5 401.58"/><polygon class="cls-15" points="250.67 371.34 207 344.93 207 358.83 239.18 378.29 250.67 371.34"/><polygon class="cls-16" points="261.5 420.41 261.5 420.58 278 410.6 278 396.79 211.64 436.93 222.91 443.75 261.5 420.41"/><polygon class="cls-16" points="234.33 450.65 278 477.06 278 463.16 245.82 443.7 234.33 450.65"/></g></g></svg>